<?xml version="1.0" encoding="utf-8"?>
<!-- Generator: Adobe Illustrator 21.1.0, SVG Export Plug-In . SVG Version: 6.00 Build 0)  -->
<svg version="1.1" id="Layer_1" xmlns="http://www.w3.org/2000/svg" xmlns:xlink="http://www.w3.org/1999/xlink" x="0px" y="0px"
	 viewBox="0 0 743.4 690" enable-background="new 0 0 743.4 690" xml:space="preserve" opacity="0.3">
<g id="Layer_1_1_">
	<g>
		<g>
			<g>
				<path fill="#FFFFFF" d="M180.8,216.7c0-0.4,0.2-3.2,1.7-4.8c-2.4-1.5-4.4-3.7-5.5-6.3c-0.4-1-0.8-2-1-3.1
					c-2.3-0.2-5.2-2.8-5.5-3.1l-1.4-1.3l1.9-0.3c4.5-0.6,6.2-4.4,6.2-4.4l0.6-1.3l0.1,0.1c0.7-1.2,1.6-2.2,2.7-3.2
					c-1.8-0.7-2.8-1.1-2.8-1.1l-2.3-0.8l2.3-0.8c1.7-0.6,3.5-0.9,5.4-0.9c1.4,0,2.6,0.2,3.7,0.3l0.4,0.1c0.9-0.2,1.8-0.3,2.8-0.3
					c1.7,0,3.4,0.3,5,0.9c0-0.2,0-0.4,0-0.6c0.1-0.9,0.1-2,1.1-3.2l1.2-1.5l0.3,2c0,0,0.6,3.3,1.4,5.8c1.7,1.4,3,3.1,3.9,5.2
					c0.3,0.7,0.5,1.3,0.7,2.1c0.8,0.5,1.6,0.9,2.3,1.5l3.4,2.6l-4.2-1c-0.1,0-0.2,0-0.2,0c-0.4,0-0.8,0.3-0.8,0.8
					c0,2.6-0.7,5.2-2.1,7.4c-0.6,2.6-1.5,4.9-2.7,6.7l-2.1,3.3l0.5-3.9c0,0,0.1-0.7,0.1-1.7c-0.7,0.4-1.4,0.8-2.1,1.2
					c-1,0.4-2,0.8-3.1,1l0.3,0.7l-1.4,0.1c-0.1,0-6.1,0.3-9.4,2.9l-1.5,1.2L180.8,216.7z"/>
				<path d="M196.8,183.2c0,0,0.6,3.5,1.5,6.2c1.6,1.3,3,3,3.9,5c0.3,0.8,0.6,1.5,0.8,2.3c0.8,0.4,1.7,1,2.5,1.6c0,0,0,0-0.1,0
					s-0.2,0-0.4,0c-0.9,0-1.7,0.7-1.7,1.7c0,2.5-0.7,4.9-2,7c-0.5,2.1-1.2,4.5-2.6,6.6c0,0,0.2-1.6,0.1-3.7c-1,0.9-2.1,1.6-3.4,2.2
					c-1.3,0.6-2.7,0.9-4.1,1.1l0.3,0.5c0,0-6.3,0.3-10,3.1c0,0,0.2-4.2,2.6-4.9c-2.8-1.3-5.1-3.6-6.5-6.6c-0.5-1.2-0.9-2.4-1-3.6
					c-0.2,0-0.3,0.1-0.5,0.1c-2,0-5.2-2.9-5.2-2.9c5-0.7,6.9-4.9,6.9-4.9l0,0c1-2,2.4-3.7,4.3-5c-2.6-1-4.3-1.6-4.3-1.6
					c1.9-0.7,3.6-0.9,5.1-0.9c1.6,0,3,0.2,4.2,0.4c0.9-0.2,1.8-0.3,2.7-0.3c1.9,0,3.8,0.4,5.6,1.2
					C196.3,186.1,195.5,184.9,196.8,183.2 M197.9,179l-2.5,3.1c-1,1.2-1.2,2.3-1.3,3.2c-1.4-0.4-2.8-0.6-4.2-0.6
					c-0.9,0-1.9,0.1-2.8,0.3h-0.3c-1.1-0.1-2.4-0.3-3.9-0.3c-2,0-3.9,0.3-5.7,1l-4.6,1.7l4.6,1.7c0,0,0.6,0.2,1.5,0.6
					c-0.4,0.4-0.8,0.9-1.1,1.4l-0.2-0.3l-1.2,2.6c-0.1,0.1-1.6,3.3-5.5,3.9l-3.8,0.5l2.8,2.6c0.5,0.5,3,2.7,5.4,3.2
					c0.2,0.9,0.5,1.8,0.9,2.6c1.1,2.5,2.9,4.6,5.1,6.2c-1.1,1.8-1.3,4.1-1.3,4.5l-0.2,3.9l3.1-2.4c3.1-2.4,8.9-2.7,8.9-2.7l2.8-0.1
					l-0.5-0.9c0.7-0.2,1.4-0.5,2.1-0.8c0.2-0.1,0.5-0.2,0.7-0.3L196,221l4.2-6.5c1.2-1.9,2.2-4.2,2.8-6.9c1.4-2.3,2.1-4.9,2.1-7.6
					l8.2,1.9l-6.8-5.1c-0.6-0.5-1.3-0.9-2-1.3c-0.2-0.6-0.4-1.3-0.7-1.9c-0.9-2.1-2.3-3.8-4-5.3c-0.8-2.4-1.3-5.4-1.3-5.4L197.9,179
					L197.9,179z"/>
			</g>
			<path d="M189.6,191l-2-0.2c0.3-2.9-2.9-7.1-4.1-8.5l-1.6-1.8l2.4,0.1c5.5,0.2,9.9,7.4,10.1,7.7l-1.7,1c0-0.1-2.5-4.1-5.8-5.9
				C188.3,185.5,189.9,188.4,189.6,191z M176,206.9c1.2-1.4,4.9-5.2,7.8-5.3l-0.1-2c-2.6,0.1-5.3,2.2-7.1,3.9c1.2-3.5,4.9-6.7,5-6.7
				l-1.3-1.5c-0.3,0.2-6.7,5.7-6,11.2l0.3,2.3L176,206.9z M190,215.8c4.1-3.2,3.8-9.8,3.7-10l-1.8,0.1c0,0.1,0.3,4.5-1.9,7.4
				c-0.5-2.2-1.5-5.6-3.9-6.7l-0.7,1.6c2.1,0.9,3,5.3,3.2,7l0.2,1.6L190,215.8z"/>
		</g>
		<g opacity="0.15">
			<path d="M205.5,198.3L205.5,198.3c-1.1-0.2-2.1,0.5-2.1,1.6c0,2.5-0.7,5-2,7c-0.5,2.1-1.2,4.5-2.6,6.6c0,0,0.2-1.6,0.1-3.7
				c-1,0.9-2.1,1.6-3.4,2.2c-1.3,0.6-0.6,1.1-2,1.2l-2.1,1.5c0,0-2.9-0.9-6,0.2c2-2.8,9.1-5,10.8-10s-7.1-1-7.1-3.8
				c0-4.9-2.8-3.4-2.9-5.3l7.8-8.8c0.6,0.2,1.2,0.4,1.7,0.7c0.5-1.2-0.4-3.6,0-4.7c0,0,1,0.2,0.6,1.4l0.7-0.9
				c0.2,0.9,0.7,3.7,1.5,5.9c1.6,1.3,3,3,3.9,5c0.3,0.8,0.6,1.5,0.8,2.3C203.9,197.2,204.7,197.7,205.5,198.3z"/>
		</g>
		<g>
			<path fill="#FF0000" d="M351.5,143.7c0,0-24.8-44.3-49.3-44.3s-63.8-1.4-80.9,4.5c-10,3.5-22.6,33.2-31.5,57.4
				c-0.7,1.9-3.5,9.8-4.9,13.7c-0.5,1.4-0.7,2.9-0.6,4.4l1,15.2c0.1,1.5,2,2.2,3,1.1l17.4-19.2l5.4-5l2.3,16.4l7.4,23l76.6-54.8
				L351.5,143.7z"/>
		</g>
		<g opacity="0.15">
			<path d="M257,184.9l-36.1,25.9l-7.4-23l-2.3-16.4l-5.4,5l-17.4,19.2c-0.4,0.5-1,0.6-1.6,0.5c0.8-14.3,19.9-40.7,25.2-47.6
				c5.1-6.6,7.2-19.9,7.7-22.8c-0.2,1.9-0.4,7.5,5.7,1.3c3.2-3.2,7.4-5.4,11.1-6.8c2.4-0.9,4.5,1.9,2.9,3.9
				c-3.5,4.6-8.2,11.9-12.9,22.5C220.1,161.5,243.6,177.3,257,184.9z"/>
		</g>
		<g>
			<path fill="#FFFFFF" d="M228.9,234.6c-0.8,0-1.4-0.1-2-0.3c-4.4-1.6-7.4-6.3-9.9-10.2c-0.9,2.8-1.9,6.3-1.9,6.3l-0.9,2.9l-1-2.9
				c-1.4-4.1-2.3-6.6-1.8-9.1c-0.2-1.5,0.1-3.4,0.5-5.3c-1,1-1.6,1.8-1.6,1.8l-2.5,3.1l0.7-3.9c0.8-4.3,2.7-8.4,4.4-11
				c-1.4,0.4-3.1,1-4.7,1.5l-3.5,1.2l2.4-2.8c2.1-2.5,4.4-4.3,5.9-5.3c3.1-2.1,5.8-4.9,8-8.4c1.6-2.5,3.5-5.2,5.9-8.2
				c-2,1-3.4,1.9-3.4,1.9l-3.3,2.1l1.9-3.4c4.3-7.7,10.7-9,10.9-9l1.4-0.3c1.1-1.2,2.3-2.4,3.5-3.6c-0.2,0-0.4,0-0.7,0
				c-3.4,0-6.4,0.5-6.4,0.5l-3.9,0.7l3.1-2.4c3.7-2.9,7.3-3.9,9.7-4.2s4.8-1.2,6.9-2.7c0.1,0,0.1-0.1,0.2-0.1c4.8-4.3,8.6-7,14-10.5
				c-2.8,0-5.2,0.4-5.2,0.4l-3.9,0.6l3.1-2.4c3.9-2.9,7.6-3.8,10-3.9c2.8-0.2,5.4-0.8,7.7-1.8c1.1-0.5,2.8-1.2,4.3-1.9
				c3.8-1.7,4.8-2.2,5.3-2.3c10.4-4.9,14.7-6.7,26.2-8.3c4.2-0.6,7.9-2.2,11-4.6c2.2-1.8,4.9-3.1,8-3.8l3.8-0.9l-2.9,2.6
				c0,0-0.8,0.7-1.9,1.8c-0.5,0.5-0.7,1.3-0.4,2c0.3,0.7,0.9,1.1,1.7,1.1c5.5,0.1,11.3,0.8,16.8,2l2.7-1.7c0.1-0.1,3.1-2,7.9-2
				c2,0,4.1,0.3,6.2,1l3.7,1.2l-3.9,0.8c0,0-1.4,0.3-3.4,0.9c-1,0.3-1.4,1.2-1.5,1.9c0,0.7,0.3,1.6,1.2,2l6.6,0.6
				c0.3,0,6.7,0.6,11.8,7.8l2.3,3.2l-3.5-1.7c0,0-1.3-0.7-3.2-1.4c0.7,0.7,1.4,1.4,2,2.1c3.1,0.9,5.8,2.6,8.3,5.1l2.8,2.8l-3.8-1.1
				c0,0-1.7-0.5-4-0.9c0.2,0.5,0.3,1,0.4,1.6l4,16.4l-99.6,28.3C278.4,203.1,241.6,234.6,228.9,234.6L228.9,234.6z"/>
			<path d="M327.5,126c0,0-0.8,0.7-2,1.9c-1.7,1.8-0.5,4.8,2,4.8c5.5,0.1,11.3,0.8,17.1,2.1c1.6-1,3.1-1.9,3.1-1.9s2.8-1.8,7.4-1.8
				c1.7,0,3.7,0.3,5.9,0.9c0,0-1.5,0.3-3.5,0.9c-2.8,0.8-3,4.7-0.3,5.7h0.1c2.5,0.2,6.7,0.7,6.7,0.7s6.2,0.5,11.1,7.4
				c0,0-4-2-8.2-2.9c2.4,1.6,4.4,3.5,6,5.5c2.3,0.6,5.3,2,8.2,5c0,0-2.6-0.8-5.9-1.3c0.5,1,0.8,2,1.1,3.1l3.8,15.4l-98.9,28.1
				c0,0-39.5,34.2-52.2,34.2c-0.6,0-1.2-0.1-1.7-0.3c-4.8-1.7-7.9-7.6-10.5-11.7c-0.8,2.7-2.6,8.4-2.6,8.4c-1.4-4.1-2.3-6.4-1.8-8.8
				c-0.4-2.1,0.6-5.5,1.1-8.3c-2.3,2.1-4,4.2-4,4.2c1-5.6,4.1-11,5.8-12.5c0-0.1-0.1-0.1-0.2-0.1c-1.3,0-7.2,2.1-7.2,2.1
				c1.8-2.1,3.8-3.9,5.7-5.1c3.4-2.3,6.1-5.3,8.3-8.7s4.9-7,8.4-11.2c-3.9,1.4-7.3,3.6-7.3,3.6c4.1-7.4,10.2-8.5,10.2-8.5
				s0.7-0.1,1.7-0.4c1.7-1.8,3.4-3.6,5.2-5.4c-1-0.1-2-0.1-3-0.1c-3.5,0-6.6,0.5-6.6,0.5c3.4-2.7,6.8-3.7,9.2-4
				c2.6-0.3,5.1-1.3,7.3-2.8c0.1-0.1,0.1-0.1,0.1-0.1s0,0.1-0.2,0.2c-0.2,0.2-0.4,0.4-0.6,0.6c0.3-0.3,0.5-0.5,0.6-0.6
				c5.6-5,9.7-7.9,16.9-12.4c-1-0.1-2-0.1-3-0.1c-3.1,0-5.6,0.4-5.6,0.4c3.7-2.7,7.1-3.6,9.5-3.7c2.7-0.2,5.5-0.8,8-1.9
				c3-1.3,9.1-4.2,9.5-4.2l0,0c10.8-5,14.9-6.7,26.1-8.3c4.2-0.6,8.2-2.2,11.4-4.8C321.7,128.2,324.1,126.8,327.5,126 M334.7,122.3
				L327,124c-3.2,0.7-6,2.1-8.4,4c-2.9,2.3-6.5,3.8-10.5,4.4c-11.3,1.6-15.8,3.4-26.4,8.3c-0.6,0.2-1.8,0.7-5.4,2.3
				c-1.6,0.7-3.2,1.4-4.3,1.9c-2.2,0.9-4.7,1.5-7.3,1.7c-2.6,0.2-6.5,1-10.6,4.1l-6.3,4.7l7.8-1.1c0,0,0.6-0.1,1.4-0.2
				c-3.9,2.6-7.1,5.1-10.9,8.4c-0.1,0.1-0.2,0.1-0.2,0.2c-2,1.4-4.2,2.2-6.4,2.5c-2.5,0.3-6.3,1.3-10.2,4.4l-6.2,4.9l7.7-1.3
				c0,0,2-0.3,4.5-0.5c-0.5,0.5-1,1.1-1.6,1.6l-1.1,0.2c-0.2,0-7.1,1.4-11.6,9.5l-3.8,6.9l5.7-3.7c-1.1,1.5-2.1,2.9-2.9,4.3
				c-2.2,3.4-4.8,6.2-7.7,8.1c-1.6,1.1-3.9,2.9-6.1,5.5l-4.7,5.6l6.9-2.5c0.7-0.2,1.4-0.5,2.2-0.7c-1.4,2.6-2.6,5.9-3.2,9.1
				l-1.4,7.7l4.2-5.2c-0.1,0.7-0.1,1.3,0,2c-0.4,2.8,0.5,5.5,1.9,9.5l2,5.7l1.8-5.8c0,0,0.6-2.1,1.3-4.3c2.3,3.6,5.2,7.3,9.2,8.8
				c0.7,0.3,1.5,0.4,2.4,0.4c12.8,0,47.8-29.7,53.2-34.4l98.4-27.9l1.9-0.5l-0.5-1.9l-3.8-15.4c1.4,0.3,2.3,0.6,2.3,0.6l7.5,2.3
				l-5.5-5.6c-0.6-0.6-1.1-1.1-1.7-1.6l-4-5.7c-5.3-7.6-12.3-8.2-12.6-8.2c0,0-3.8-0.4-6.4-0.6c-0.5-0.3-0.5-0.7-0.5-0.9
				s0.1-0.8,0.8-1c1.9-0.6,3.3-0.8,3.3-0.8l7.7-1.5l-7.5-2.4c-2.2-0.7-4.3-1-6.5-1c-5.2,0-8.4,2.1-8.5,2.1l-2.3,1.4
				c-5.5-1.2-11.3-1.8-16.6-1.9c-0.5,0-0.7-0.3-0.8-0.5c-0.1-0.2-0.2-0.6,0.2-0.9c1.1-1.1,1.8-1.8,1.9-1.8L334.7,122.3L334.7,122.3z
				"/>
		</g>
		<g>
			<path d="M215,220.7l1.5-4.1c2.1-5.9,7.3-10,7.5-10.2l1.2,1.6c0,0-2.6,2.1-4.8,5.2c1.9-1.2,4.1-2.3,6.2-2l-0.3,2
				c-2.8-0.4-6.9,3.1-8.3,4.4L215,220.7z"/>
			<path d="M350,147.5l-1.9-0.7c0.7-2,2.7-3.5,4.7-4.6c-3.8,0.4-6.8,1.8-6.8,1.8l-0.8-1.8c0.3-0.1,6.3-2.9,12.5-2l4.3,0.6l-4.1,1.3
				C356,142.7,351,144.8,350,147.5z"/>
			<path d="M342.8,161.8c-0.1-2.1,1.2-4.3,2.6-6c-3.2,1.8-5.5,4.3-5.5,4.3l-1.5-1.4c0.2-0.2,4.8-5.1,10.7-6.6l4.2-1l-3.3,2.8
				c-1.5,1.2-5.2,5-5.1,7.9L342.8,161.8z"/>
			<path d="M323.7,141.8l-1.9-0.4c0.5-2,2.2-3.9,4-5.2c-3.7,1-6.4,2.8-6.5,2.8l-1.1-1.7c0.2-0.2,5.8-3.8,12-3.8h4.3l-3.9,1.9
				C328.9,136.2,324.3,139,323.7,141.8z"/>
			<path d="M287.8,151.8c-0.6-2,0.1-4.5,1.1-6.5c-2.8,2.6-4.4,5.5-4.4,5.5l-1.8-1c0.1-0.2,3.4-6.1,8.9-8.9l3.8-1.9l-2.6,3.4
				c-1.1,1.5-3.9,6.1-3.1,8.8L287.8,151.8z"/>
			<path d="M217.6,200.9l3-3c4.4-4.4,10.9-5.8,11.2-5.9l0.4,2c0,0-3.3,0.7-6.6,2.6c2.2-0.3,4.8-0.3,6.5,0.9l-1.1,1.7
				c-2.4-1.5-7.6-0.2-9.4,0.4L217.6,200.9z"/>
			<path d="M234.2,179.1l3.1-3.1c4.4-4.4,10.9-5.8,11.2-5.9l0.4,2c0,0-3.3,0.7-6.6,2.6c2.2-0.3,4.8-0.3,6.5,0.9l-1.1,1.7
				c-2.4-1.5-7.6-0.2-9.4,0.4L234.2,179.1z"/>
			<path d="M241,202.3l3.1-3.1c4.4-4.4,10.9-5.8,11.2-5.9l0.4,2c0,0-3.3,0.7-6.6,2.6c2.2-0.3,4.8-0.3,6.5,0.9l-1.1,1.7
				c-2.4-1.5-7.6-0.2-9.4,0.4L241,202.3z"/>
			<path d="M238.6,118.1c-0.5,0.1-11.5,2.9-18,16c-0.9,1.8-1.7,3.7-2.4,5.6l0,0c-0.2,0.2-0.5,0.4-0.7,0.6c-0.1-0.5-0.3-2.2,0.9-7.2
				c2.7-11.5,5.4-13.1,5.5-13.1l-0.4-0.9l-0.4-0.9c-0.6,0.2-3.6,2-6.6,14.5c-1.7,7.5-0.9,9,0.1,9.6c0.2,0.1,0.4,0.2,0.6,0.2
				c-4.8,13.6-6.2,27.5-6.2,27.7l2,0.2c0-0.2,2-20,9.4-35.3c6-12.3,16.5-14.9,16.6-15L238.6,118.1z"/>
		</g>
		<g opacity="0.15">
			<path d="M257.7,218.1c-12.1,8.8-25.4,17.2-30.5,15.3c-4.8-1.7-7.9-7.6-10.5-11.7c-0.8,2.7-2.6,8.4-2.6,8.4
				c-1.4-4.1-2.2-6.5-1.8-8.8c-0.4-2.1,0.6-5.5,1.1-8.3c-2.3,2.1-4,4.2-4,4.2c1-5.6,4.1-11,5.8-12.5c0.3-0.8-7.5,2-7.5,2
				c1.8-2.1,3.8-3.9,5.7-5.1c3.4-2.3,6.1-5.3,8.3-8.7s4.9-7,8.4-11.2c-3.8,1.4-7.1,3.5-7.3,3.6c4.1-7.4,10.2-8.5,10.2-8.5
				s0.7-0.1,1.7-0.4c0,0-1.6,5.3-1.6,11.6c0,6.4,3.8-0.6,6.1,0c2.4,0.6-4.6,6.2-4.6,13.3s-2.1,15.7,12.4,14.2
				C253.2,214.8,256.2,216.2,257.7,218.1z"/>
		</g>
	</g>
</g>
<g id="Layer_2">
	<g>
		<polygon fill="#FF0000" points="652.9,151.2 568.3,176.9 565.9,145.7 540.3,169.5 534.8,174.7 488.3,218 512.2,208.3 510.2,218.6
			540.9,207.5 511.7,231.5 524.1,237.3 489.6,253.1 569.4,237.6 577.9,236 620.5,227.7 586,209.2 		"/>
		<defs>
			<filter id="Adobe_OpacityMaskFilter" filterUnits="userSpaceOnUse" x="499.1" y="120.1" width="139.5" height="147">
				<feColorMatrix  type="matrix" values="1 0 0 0 0  0 1 0 0 0  0 0 1 0 0  0 0 0 1 0"/>
			</filter>
		</defs>
		<mask maskUnits="userSpaceOnUse" x="499.1" y="120.1" width="139.5" height="147" id="SVGID_1_">
			<g filter="url(#Adobe_OpacityMaskFilter)">
				<polygon fill="#FFFFFF" points="528.9,237.3 515.4,231 542.2,209 540.2,205.6 512.8,215.5 514.9,205.1 497.6,212.1 564.2,150
					566.5,179.5 644.5,155.8 582.5,209.6 614.6,226.8 505.7,247.9 				"/>
			</g>
		</mask>
		<g mask="url(#SVGID_1_)">

				<rect x="528.4" y="177.6" transform="matrix(0.3674 -0.9301 0.9301 0.3674 201.3496 678.7474)" fill="#FFFFFF" width="142.4" height="27.5"/>

				<rect x="466.8" y="182" transform="matrix(0.3674 -0.9301 0.9301 0.3674 158.2632 624.2513)" fill="#FFFFFF" width="142.4" height="27.5"/>
		</g>
	</g>
	<path d="M610.3,310.5c-0.2-1.8-0.5-3.6-0.8-5.3c-0.4-3-0.9-5.9-1.5-8.8c-0.5-2.6-1-5.1-1.5-7.7c-1.1-5.1-2.4-10.2-3.8-15.3
		c-1.9-6.7-4-13.2-6.3-19.7c-0.9-2.4-1.8-4.7-2.7-7.1l-4.1,0.4l-9.4,0.8l-2.6,0.2c10.7,24.9,17.4,51.9,19.3,80.1
		c0,0.4,0.1,0.9,0.1,1.3c0.1,1.9,0.2,3.7,0.3,5.6c0.1,3.2,0.2,6.4,0.2,9.6c0,2.8,0,5.6-0.1,8.4c-0.3,8.2-1,16.2-2,24.2
		c-1,7.3-2.3,14.6-3.9,21.7c-6.4,28.3-17.8,54.8-33,78.4c-0.7,1.1-1.4,2.2-2.2,3.3c-0.2,0.3-0.5,0.7-0.7,1c-1,1.5-2.1,3-3.2,4.4
		c-1.3,1.6-2.6,3.1-4,4.6c-4.9,5.1-10.4,9.4-16.3,12.8c-4.4,2.5-9.1,4.5-14,6.1c-20.6,6.4-43.8,3.3-62.2-10.7
		c-4.2-3.1-6.3-5.4-6.3-5.4c17.4,0.9,24.8-2.8,24.8-2.8c-40.3-15.5-46.5-55.4-46.5-55.4c4.1,6.2,17.6,9.1,17.6,9.1
		c-22.6-39.3,0.5-62.9,0.5-62.9c3.9,15.4,14,22.3,14,22.3c-4.9-32.3,10.4-47.2,11.4-47.8c1-0.5,2.8-2,13-13
		c10.7-11.4,15.3-16.8,15.3-16.8c3.3-3.2,5.4-6.1,4.9-8.6c-4.7-24.9-2.8-23.6-6.9-28.4c-3.5-4.1-10.9-7.1-11-7.9
		c-0.4-3.3-1.7-8-5.8-13.4c0,0-1,5.2-5.7,10.4c-0.5-0.2-1.1-0.3-1.8-0.4c-0.5-3.6-2.3-9.2-8.1-15.3c0,0-0.6,7.3-6.8,14.2
		c-0.1,0-0.1,0-0.2,0c-0.1-3.2-1.3-10.9-10-19.1c0,0-0.2,7.5-6,15.1c-1.6-0.5-2.7-0.9-3.4-1.2c-3.4-1.5-11-7.4-10.3-16.1
		c0.4-5.1,2.6-9.2,4.4-11.7c9.3,0.9,14.9,5.6,14.9,5.6c-0.2-8.6-2.8-14.1-5.1-17.3c1.6-1.9,3.1-3.8,4.6-5.6
		c8.1,1.2,12.8,5.3,12.8,5.3c0-7.7-2.2-12.8-4.2-15.8c1.9-2.3,3.7-4.5,5.3-6.6c6.6,2.2,10,6.2,10,6.2c1.1-7.9-0.7-13-2.3-15.9
		c3.9-5.2,6.6-8.8,7.6-10.4c2.4-3.8,0.8-8.1,0.8-8.1c-5.2-12.6-20.9-28.1-20.9-28.1c-5.1-2.8-18.9-7.4-22.6-8.5s-4.9-0.8-5.9-0.8
		c-1-0.1-5.6,1-5.6,1c-15.1,2.9-38.7,13.8-38.7,13.8l-12.2,5.8c0,0-4.8,2.4-11.2-1.6c-6.4-3.9-14-2.7-34.8,0.6
		c-20.7,3.4-33.2,4.8-33.2,4.8s-8.1,1.5-17.8,10.7c-9.8,9.2-18.3,15.8-28.7,30.2c-10.5,14.4-36.6,25.2-55.9,29.6
		c0,0,11,5.5,22.3,7.4c0,0-28.3,18.7-55.7,24.3c0,0,9.5,10.4,29.5,15.5c0,0-27.1,18.7-61.5,24.3c0,0,10.9,13.6,28.1,19.8
		c0,0-12.3,19.8-30.3,17c-4.8-0.8-8.2-2.2-10.6-4c-3.3-2.6-4.7-5.9-5.3-9.2c-0.1-0.7-0.2-1.4-0.3-2.1c0.3-5.2,0.7-10.4,1.3-15.5
		c0.9-7.2,2-14.2,3.5-21.2c7.7-37.1,23.9-71.2,46.4-100.1c1.2-1.5,2.4-3,3.6-4.5c2.1-2.5,4.2-5.1,6.4-7.5c1.8-2,3.7-4.1,5.5-6.1
		c5.6-5.9,11.4-11.5,17.5-16.8l0,0c3.5-9.5,7.5-19.7,11.8-28.8c-27.3,19-50.8,43.2-69,71.1c-1.1,1.7-2.2,3.3-3.2,5
		c-1.8,2.9-3.5,5.8-5.2,8.7s-3.3,5.9-4.9,8.9c-3,5.7-5.8,11.6-8.3,17.6c-4,9.3-7.5,18.9-10.4,28.7c-6.9,23.5-10.7,48.3-10.7,74.1
		c0,144.2,116.8,261,261,261c96.7,0,181-52.5,226.2-130.6c0.7-1.2,1.4-2.4,2-3.6c1.1-2,2.2-4.1,3.3-6.1c0.9-1.8,1.8-3.5,2.7-5.3
		c3.2-6.5,6.1-13.1,8.8-19.8c2.7-6.9,5.2-14,7.3-21.2c7-23.5,10.7-48.5,10.7-74.3C612.5,333.3,611.7,321.8,610.3,310.5z
		 M324.7,174.1c0.7-0.4,1.5-0.7,2.3-0.9c5.2-1.8,13.7-0.5,14.5-0.4c0.9,0.1,11.1,2.8,11.1,2.8c-0.1,0-0.3,0.1-0.4,0.1
		c0.6,0.2,1,0.3,1,0.3c-5.2,1.5-13.9,5.4-17.6,7.1c-3.7,1.7-6.3,0.6-7,0.4c-0.6-0.3-6.2-2.8-7.6-4.4
		C319.5,177.6,323.1,175,324.7,174.1z M234.1,302.8c-0.3,3.9,1.9,6.2,3.5,10.1s-1.8,9.6-1.8,10c-0.1,1,0.1-3.8-3-9.1
		C229.7,308.5,234.2,302.8,234.1,302.8z M253.8,378.1c-6.2,0.1-9-6.5-9-6.5c3.2,2.1,6.4,1.3,10.5,1.8c4.2,0.6,7.5,6.3,7.8,6.5
		C264,380.5,259.9,378.1,253.8,378.1z M410.8,338.1c-4.7-0.1-5.2-1.8-5.2-1.8c-2.9-5.3,5.8-11.3,5.8-11.3
		c-4.6-0.4-14.8,4.1-20.4,7.8s-7.8,3.8-10.3,2.5c-2.5-1.4-4.1-2.8-10.1-2.2c-5.6,0.6-10.2-1.9-10.7-2.2c1.1,3,6.3,7.1,6.3,7.1
		c-30.4-2.2-29.5-28.8-29.5-28.8c-5.8,22.2,2.8,40.1,14.3,44.8s15.3,11.9,15.3,11.9c-7.3-3.5-10.3-0.8-20.5-1.8s-9.6-7.1-16.5-9.6
		s-13.3,3.4-21.7,5.4c-8.4,2-19.2,0-19.2,0c3,5,15.1,8.8,15.1,8.8c-3.6-0.1-13.9,5.5-13.9,5.5s-11.1,4.1-18.2-3.6
		s-16.3-9.4-16.3-9.4c1.4,2.2,1.6,6.4,1.6,6.4s-1.5-3.7-12.9-7.3c-11.4-3.6-12-15.1-12-15.1c8.3,7.1,18,9,18,9
		c-1.9-4.3-5.3-8.4-5.3-8.4c-6-7.2-1.8-18-1.8-18c1.7,10,6.9,10.8,6.9,10.8c2.6-16.4-3-27.8-3-27.8c-12.9-24,6.1-45.9,6.1-45.9
		c-2.3,13,2.1,18.3,2.1,18.3c2.6-17.7,12.1-17.6,13.4-27.9c1-8.1,2.5-15.1,8.6-18.9c6.1-3.8,12.5-10.4,12.5-10.4
		c-4.7,0.9-11.8-1.2-11-1.2s13.2-4.5,25-16.6c11.7-12.1,30.2-10.1,30.2-10.1s-5.3,1.5-9.6,6c-4.2,4.5-10.5,5.6-10.5,5.6
		s9.3,3.7,16.1,0.1c6.8-3.6,12-10.3,15.8-9.7c0,0-1.6,6-4.4,8.4c0,0,8.9-1.4,13.6-7.1c4.7-5.7,9.4-6,9.4-6s6.5-1.9,9.2-6.4
		c2.8-4.5,4.9-5.9,10.5-7.1c5.6-1.2,9.1-5.3,10.1-6.9c1-1.7,5-6.6,9.9-6.6c5,0,12.2-8.4,12.2-8.6c0-0.3,3.4-4.2,10.8-3.8
		c7.5,0.4,16,0.3,24.6,3.3c0,0,4.9,0.9,11.4,7.7s10.4,13.7,10.9,15c0.5,1.4,1.5,1.7-0.3,4.6c-1.9,2.9-5,7.8-5,7.8s0.6-6,0.6-7.3
		s0.1-2.7-2.9-6.2c0,0-1.2,2.8-3,3.3c0,0,0.9-9.6-7.3-12.1c0,0-0.6,5.2-2.8,7.3c0,0-3.9-9.5-10.6-7.6l-3.1,1.2c0,0,2.9,12-4.5,21.4
		c0,0-3.2-6.8-6.1-8.9s-1.1-5.1-1.1-5.1s0.9-2.8,3.7-4.8c-0.5,0.2-8.7,3.2-15.6,7.2c0,0,4.4,14.5-3.8,25.4c0,0-4.6-7.6-7.4-10.1
		s-3.2-3.9-1.9-6.5c1.2-2.7,3.3-4.8,3.3-4.8l-15.7,9c0,0,5,12.6-0.2,25.6c0,0-7.3-8.1-11.2-9.9c-3.9-1.9-2.4-5.8-2.4-5.8
		s0.6-2.8,2.4-5.1c0,0-8.1,4.1-12.9,11c-4.8,6.8-10.7,24.5-5.8,36.4c-0.3-0.2-5.1-3.1-7.9-7.7c0,0,1.2,42.6,50.1,48.3
		c0,0-7.7-2.3-5.1-8.6c2.7-6.2,3.2-11.5,3.2-11.8c0.5,0,11.2,7.6,13.6,21.2c0,0,8.5,0.9,14.6,0.2c0,0-8.4-1.4-6.4-7.8
		s0.7-13.3,0.7-13.3s12.7,4.7,17,18.3c0,0,11.5-2.9,13.7-3.8c0,0-6.5,0-5.8-4c0.8-4-0.2-7.2-0.2-7.2s8.2,4,11.4,10
		c0,0,2.4-0.7,2.9-0.8c0.6-0.1,5.5-0.5,9.7-0.2c0,0,4.4-1.2,12.4,2.8s11.2,8.1,11.2,8.1s1.9,2.4,3,8.5c1.2,6,3.1,17.3,3.1,18.6
		c-0.1,1.2-3.8,5.4-3.8,5.4c0.8-4.1-0.3-10.1-2.8-13.9s-7.8-2.5-9.2-2.2c-1.4,0.4-5.4,2.4-7.7,1.7c-2.3-0.7-6.6-1.6-9.4,1.9
		c-2.7,3.5-5,3.9-8.3,4.3c-4.1,0.5-8.1,3.7-9.5,5.8c-1.5,2-5.2,6.1-11.7,6.1c-6.4,0-10,2.1-14.7,6.4
		C419.4,338.6,415.9,338.2,410.8,338.1z M384.6,269.2c0,0-12.6-5.4-13.5-15.8c-0.9-10.4,11.5-9.7,12.8-9.3c3,0.7,3.6,1.1,13.5,7.8
		c0,0,4.1,2.8,9.4,0.4c0,0-5.7,0.4-9.5-5.2c-3.8-5.6,0.6-4.7,2.1-2.8c1.4,1.8,1.7,5.1,5.4,5.5c3.7,0.3,6.8,0.9,8.5-3.5
		c1.8-4.4,0.8-3.9,2-4.7s1.6,3.9,0.7,5.5c0,0-4.8,17.5-20.4,13.2c-2.5-0.6-8.3-5.4-11.1-0.8C382.7,262.6,383.3,265.8,384.6,269.2z
		 M291.1,312c1.2-1.8,2.2-3.4,4.2-4.3c0,0-5.9-1-8.6,3.4c-1.3,2.1-2.7,3.6-3.8,4.5c0,0-0.1,0.2-0.3,0.3l-0.1,0.1
		c-0.3,0.3-0.8,0.7-0.9,0.8c0,0,0.3,0.2,0.8,0.3c1.6,0.4,4.7,1,6.7-0.2c2.7-1.6,4.1-3.6,7-3.9C296.1,313,293.7,311.8,291.1,312z
		 M288.7,278.7c3.1-3.7,4.5-7.2,8.6-8.9c0,0-8.8-1.7-12.9,4.7c-4.2,6.4-8.8,8.5-8.3,8.6s7.5,4.2,12.4,2.3c4.8-1.9,7.8-4.6,12.5-4.3
		C300.9,281.1,294.9,276.3,288.7,278.7z M317.1,243.4c-0.2-0.3-2.6-5.1-7.3-6.2c4.4-2,7-4.6,11.5-4.5c0,0-6.9-4.9-13-1.1
		c-6.1,3.9-10.8,3.9-10.8,4c0.3,0.3,4.2,6,8.5,6.4C310.4,242.3,313.6,241.3,317.1,243.4z M328.2,300c0,0-10,1.2-12.3,9.5
		c-1.3,4.9-3.5,8.4-4.9,10.3c-0.4,0.5-1.1,1.6-1,1.6h1.6c2.3-0.1,6.3-0.5,8.4-2.7c2.9-3.2,4.1-6.3,7.8-7.8c0,0-2.4-0.5-5.2,0.1
		C324.2,306.6,324.8,302.9,328.2,300z"/>
	<path fill="#0084FF" d="M601.8,419.3c-2.1,7.2-4.6,14.3-7.3,21.2c-0.6,3.7-1.6,7.3-3.1,10.8s-3.4,6.4-5.7,9
		c-6,6.8-14.6,10.9-24.1,15.5c-1,0.5-2.1,1-3.1,1.5c-13.6,6.6-28.4,14.7-40.3,32.1c4.8-1.5,9.5-3.5,14-6.1
		c5.2-5.3,10.7-9.4,16.3-12.8c5.5-3.3,11-6,16.2-8.5c4.5-2.2,8.9-4.3,13-6.7c8.6-5,15.9-11.2,20.2-21.4
		C602.6,442.7,603,431,601.8,419.3z M596,453.2c-3.1,7.5-8.2,13.3-16.3,18.6c-1,0.6-2,1.3-3.1,1.9c-4.1,2.4-8.6,4.5-12.9,6.6
		c-3.5,1.7-7.4,3.6-11.4,5.7c-1.7,0.9-3.4,1.9-5,2.9c-6.4,3.9-11.8,8.1-16.5,12.9c-2.3,1.3-4.7,2.5-7.1,3.5
		c9.8-12.2,21.3-19,32.6-24.7c1-0.5,2-1,3.1-1.5c1-0.5,2.1-1,3.1-1.5h0.1c7.5-3.6,14.7-7.1,20.4-11.9c1.5-1.2,2.9-2.6,4.2-4
		c2.6-2.9,4.5-6,6-9.6c1.4-3.5,2.5-7.2,3.2-11c1.4-3.5,2.7-7.1,3.9-10.7C600.3,439,598.9,446.4,596,453.2z M112.1,300.8
		c-0.4-2-0.7-4-1.1-6c-1.5,7-2.6,14.1-3.5,21.2c0.4,3.4,0.5,6.4,0.2,9c-0.3,2.9-0.8,5.8-1.3,8.6c0.6,3.3,2,6.7,5.3,9.2
		c1.2-5.3,2.2-11.1,3-17C115.5,318.9,114,310.5,112.1,300.8z M112.7,325.6c-0.5,4.3-1.2,8.7-2.1,13.2c-1-1.5-1.7-3.2-2.1-5.2
		c0.5-2.8,0.9-5.7,1.2-8.4c0.3-2.5,0.2-5.6-0.2-9.3c0.4-3.4,0.9-6.9,1.5-10.3C112.4,313.4,113.4,320.1,112.7,325.6z M612.7,280.3
		c-1.9-9.6-8.3-18.4-16.2-26.6c2.3,6.5,4.4,13,6.3,19.7c1.5,2.7,2.5,5.5,3.1,8.3c0.5,2.3,0.7,4.6,0.7,7c0.1,11.6-4.2,24.8-8.7,38.6
		c-0.2,0.7-0.5,1.4-0.7,2.1c-3.7,11.2-7.3,22.8-8.5,34c-1.2,11.5,0.8,23.7,3,35.5c1.6-7.1,2.9-14.3,3.9-21.7
		c-0.3-4.5-0.4-8.8,0.1-13.1c0.4-3.6,1.1-7.4,1.9-11.1c1.8-7.8,4.4-15.8,7-23.6c2.1-6.5,4.2-12.8,5.9-19
		C613.1,299.9,614.6,289.8,612.7,280.3z M609.5,305.1c-0.3,1.6-0.7,3.2-1.2,4.8c-1.7,6.2-3.8,12.6-5.8,18.8
		c-1.6,4.9-3.4,10.3-5,15.8c-0.8,2.7-1.5,5.3-2.1,8c-0.9,4.1-1.6,7.8-2,11.3c-0.4,4-0.5,8.4-0.1,13.2c-0.5,3.6-1.1,7.3-1.7,10.9
		c-1.3-8.6-2-16.7-1.2-24.5c1-9.2,3.6-18.5,6.8-28.6c0.5-1.6,1.1-3.3,1.6-5c0.1-0.4,0.2-0.7,0.4-1.1c0.1-0.4,0.2-0.7,0.3-1.1v-0.1
		c3.7-11.1,7.1-21.7,8.3-31.5c0.3-2.6,0.5-5.2,0.5-7.7c0-2.6-0.3-5-0.7-7.4c-0.6-2.8-1.6-5.7-3.2-8.6c-0.9-3.3-1.9-6.7-3-9.9
		c5,6.4,7.9,12.3,9.1,18C612.1,287.6,611.7,295.3,609.5,305.1z M129.9,207c1.4-1.1,2.9-2.3,4.4-3.4c6.4-4.8,13.4-8.9,20.7-13.4
		l0.1-0.1c4-2.4,8.1-4.9,12.2-7.6c2.2-1.4,4.5-2.9,6.7-4.4c5-3.4,9.4-6.8,13.4-10.3c0.4-1.3,0.9-2.6,1.4-3.9
		c-0.4,0.4-0.8,0.7-1.1,1.1c-4.8,4.2-9.8,8-14.8,11.5c-6.2,4.3-12.6,8.1-18.8,11.9c-7.3,4.4-14.4,8.8-21,13.6
		c-12.2,9-22.3,19.6-27.5,35.7c-3.8,11.6-4.8,22.8-4.4,33.2c2.9-9.8,6.4-19.4,10.4-28.7c0.2-0.8,0.5-1.6,0.7-2.4
		c1.9-5.8,4.4-10.8,7.6-15.2c8.9-12.6,22.5-20.9,37.5-30.1c0.1-0.1,0.2-0.1,0.4-0.2c8.8-5.4,17.9-10.8,26.6-17.6
		c0.4-1.1,0.8-2.3,1.2-3.5c-8,6.4-16.4,11.7-24.6,16.7c-1.4,0.8-2.8,1.7-4.1,2.5l-0.1,0.1l-0.1,0.1h-0.1h-0.1h-0.1
		c-11.7,7.1-22.9,13.9-31.6,22.8c-2.4,2.4-4.6,5-6.5,7.8c-3.4,4.8-6,10-7.9,15.8c-0.2,0.8-0.5,1.5-0.7,2.3c-2.2,5.1-4.2,10.2-6,15.4
		c0.6-6.4,1.9-12.6,3.9-18.6C111.4,226.2,118.4,216.3,129.9,207z M514.5,130.8c-7.1-4.9-18.2-8.4-31.1-11.1
		c7,4.1,13.8,8.5,20.3,13.2c2.6,1.1,4.9,2.3,6.8,3.6c3,2.1,5.9,4.9,8.5,8.2c2,1.7,4.1,3.5,6.1,5.2c-1.5-2.4-3-4.5-4.5-6.5
		c-2.8-3.6-5.8-6.6-8.9-8.7c-1.9-1.3-4.3-2.6-7-3.7c-3.1-2.2-6.3-4.4-9.5-6.5c8,2.3,13.9,4.9,18.1,7.8c6.6,4.5,12.8,12.4,18.7,23.9
		l-0.1,0.1c0.4,0.4,0.8,0.7,1.1,1.1c-1.3,1.3-2.6,2.8-4,4.2l4-4.2l0.9-1.5C528.5,145.1,522.6,136.4,514.5,130.8z M425,110.5
		c-9.5-1.5-17.9-3-24-4.9c-2.6-0.8-5.3-1.8-8.1-2.9c-3.5-1.3-7.1-2.9-10.9-4.4c-12.1-5.1-25.7-10.7-41.4-14.1
		c-8.5-1.8-17.6-3-27.5-3c-8.6,0-17.7,0.9-27.4,2.9c-14.9,3.1-26.7,8.7-36.7,15.6c1.3-0.1,2.6-0.1,3.9-0.2
		c10-6.5,20.9-10.8,33.2-13.4c9.1-1.9,18.2-2.9,27-2.9c6.4,0,12.6,0.5,19,1.5c2.7,0.4,5.3,0.9,8,1.5c15.5,3.3,29,9,41,14h0.1
		l0.8,0.3c0.8,0.3,1.5,0.6,2.3,1c2.7,1.1,5.3,2.2,7.8,3.2c3,1.2,5.8,2.2,8.3,2.9c5.4,1.7,12.9,3.2,24.1,4.9
		c4.9,1.6,9.8,3.3,14.7,5.2c-15.6-2.2-30.1-4.3-39.7-7.2c-6.1-1.9-12.6-4.6-19.5-7.5c-2.1-0.9-4.2-1.8-6.4-2.7l0,0
		c-1.9-0.8-3.9-1.6-5.9-2.4c-13.1-5.1-30.7-11-51.4-11.6c-1.1,0-2.2-0.1-3.4-0.1c-4,0-8.1,0.2-12.2,0.6c-4.6,0.4-9.4,1.2-14.1,2.2
		c-8.9,1.9-16.8,4.6-24.3,8.4c-1.7,0.6-3.4,1.2-5.1,1.9c2-0.1,4-0.1,6-0.1c6.9-3.5,14.8-6.3,23.8-8.2c4.8-1,9.4-1.7,13.9-2.1
		c4.1-0.4,8.1-0.6,12-0.6c21,0,38.7,5.5,54,11.5c4.2,1.7,8.3,3.4,12.2,5c7,2.9,13.5,5.7,19.7,7.6c10.2,3.1,25.9,5.3,42.5,7.7
		c4.1,0.6,8.3,1.2,12.5,1.8C444.7,117.4,435,113.7,425,110.5z"/>
	<path d="M532,156.4c-2.3-2.2-4.6-4.3-6.9-6.4c-2-1.8-4-3.5-6.1-5.2c-5-4.1-10.1-8.1-15.3-11.9c-6.6-4.7-13.3-9.1-20.3-13.2
		C444.6,97,399.6,84,351.5,84c-3.7,0-7.3,0.1-10.9,0.2c-2.8,0.1-5.6,0.3-8.5,0.5c-5.3,0.4-10.6,0.9-15.8,1.6
		c-5.2,0.7-10.3,1.5-15.4,2.5c-12.9,2.5-25.5,6-37.6,10.4c13.7-0.2,27.8,0.1,38.8,0.1c3.8,0,7.7,1.1,11.5,2.9
		c17.3-2.7,35.1-3.6,53.4-2.5h0.1c2.2,0.1,4.3,0.3,6.5,0.5l0,0c3.6,0.3,7.1,0.7,10.7,1.2c2.9,0.4,5.7,0.8,8.5,1.3
		c11,1.9,21.7,4.5,32.1,7.8c9.9,3.1,19.6,6.9,29,11.2c25.4,11.7,48.4,27.7,68.3,46.8c2.3-2.3,4.6-4.7,6.8-6.9c1.4-1.4,2.7-2.8,4-4.2
		C532.7,157.1,532.4,156.8,532,156.4z"/>
	<g>

			<image overflow="visible" enable-background="new    " width="634" height="534" xlink:href="2C559ED55638C29F.png"  transform="matrix(1 0 0 1 55.5012 5)">
		</image>
	</g>
	<g>

			<image overflow="visible" enable-background="new    " width="566" height="472" xlink:href="2C559ED55638C29A.png"  transform="matrix(1 0 0 1 86.5012 39)">
		</image>
		<g>
			<g>
				<g>
					<path d="M119.1,304.4c-0.8-1.4-1.1-2.9-1-4.3l-2.4,1.4c-0.7,0.4-1.1,1.2-1.1,2.1c0.1,1,0.4,2,1,2.9c0.5,0.9,1.2,1.6,1.9,2.1
						c0.7,0.5,1.6,0.5,2.4,0.1l2.4-1.4C121,306.7,119.9,305.7,119.1,304.4z"/>
					<path fill="#5BDE1A" d="M130.6,306.1c6.8-4.3,10.6-10.3,8.6-13.6c-2-3.4-9.1-2.8-16.1,1.1l0,0l-1.4,0.8
						c-3.5,2.1-4.6,6.6-2.6,10c2.1,3.5,6.6,4.6,10,2.6L130.6,306.1L130.6,306.1z"/>
					<rect x="113.1" y="305.6" transform="matrix(0.8599 -0.5104 0.5104 0.8599 -140.4722 101.6352)" width="3.7" height="2.3"/>
				</g>
				<g>
					<path d="M308.5,75.2c-1.6,0-3-0.4-4.3-1.3l0.1,2.8c0,0.8,0.5,1.6,1.3,1.9c0.9,0.4,1.9,0.6,3,0.6c1,0,1.9-0.2,2.8-0.6
						c0.8-0.3,1.3-1.2,1.2-2l-0.1-2.8C311.4,74.7,310,75.2,308.5,75.2z"/>
					<path fill="#FFA200" d="M315.6,66.1c-0.4-8-3.7-14.3-7.6-14.2s-6.9,6.5-7,14.5l0,0v1.7c0.1,4,3.4,7.2,7.5,7.2
						c4-0.1,7.2-3.4,7.2-7.5L315.6,66.1L315.6,66.1z"/>

						<rect x="307.4" y="78.2" transform="matrix(0.9998 -2.100619e-02 2.100619e-02 0.9998 -1.6135 6.4993)" width="2.3" height="3.7"/>
				</g>
				<g>
					<path d="M481,114.6c-1.5-0.6-2.7-1.5-3.5-2.8l-1,2.6c-0.3,0.8-0.1,1.7,0.5,2.3c0.7,0.7,1.6,1.3,2.6,1.6
						c0.9,0.3,1.9,0.5,2.8,0.5s1.6-0.6,1.9-1.4l1-2.6C483.9,115.2,482.5,115.2,481,114.6z"/>
					<path fill="#5BDE1A" d="M491,108.8c2.6-7.6,1.9-14.6-1.8-16c-3.7-1.4-8.9,3.5-11.9,10.9l0,0l-0.6,1.6c-1.4,3.8,0.5,8,4.3,9.4
						s8-0.5,9.4-4.3L491,108.8L491,108.8z"/>
					<rect x="477.5" y="117.9" transform="matrix(0.3513 -0.9363 0.9363 0.3513 199.5013 526.0304)" width="3.7" height="2.3"/>
				</g>
				<g>
					<path d="M617.3,275.3c-0.3-1.5-0.1-3.1,0.5-4.4l-2.8,0.6c-0.8,0.2-1.5,0.8-1.7,1.6c-0.2,1-0.2,2,0,3s0.6,1.9,1.1,2.6
						s1.4,1,2.2,0.9l2.7-0.6C618.4,278.1,617.6,276.8,617.3,275.3z"/>
					<path fill="#00AAED" d="M627.6,280.6c7.8-1.8,13.4-6.3,12.6-10.1c-0.8-3.8-7.7-5.6-15.6-4.2l0,0l-1.6,0.3
						c-4,0.8-6.5,4.7-5.7,8.7s4.7,6.5,8.7,5.7L627.6,280.6L627.6,280.6z"/>
					<rect x="610.8" y="275.1" transform="matrix(0.9789 -0.2044 0.2044 0.9789 -43.5337 131.0566)" width="3.7" height="2.3"/>
				</g>
				<g>
					<path d="M607.5,441.1c0.1-1.6,0.6-3,1.5-4.2l-2.8-0.1c-0.8,0-1.6,0.4-2,1.2c-0.4,0.9-0.7,1.9-0.8,2.9c0,1,0.1,1.9,0.4,2.8
						c0.3,0.8,1.1,1.3,1.9,1.4l2.8,0.1C607.9,444.1,607.5,442.6,607.5,441.1z"/>
					<path fill="#FFA200" d="M616.2,448.8c8,0.1,14.5-2.8,14.6-6.7c0.2-3.9-6.1-7.3-14.1-7.9l0,0l-1.7-0.1c-4-0.2-7.4,3-7.6,7
						c-0.2,4,3,7.4,7,7.6L616.2,448.8L616.2,448.8z"/>

						<rect x="601.6" y="439" transform="matrix(4.006391e-02 -0.9992 0.9992 4.006391e-02 138.0983 1025.3953)" width="2.3" height="3.7"/>
				</g>
				<g>
					<path d="M116.8,208.1c-1.1,1.1-2.5,1.8-3.9,2l2,2c0.6,0.6,1.5,0.8,2.3,0.5c0.9-0.4,1.8-0.9,2.5-1.7c0.7-0.7,1.2-1.5,1.6-2.4
						c0.3-0.8,0.1-1.7-0.5-2.3l-2-2C118.5,205.7,117.8,207,116.8,208.1z"/>
					<path fill="#00AAED" d="M115.6,196.6c-5.8-5.5-12.6-7.7-15.3-5c-2.8,2.8-0.5,9.5,5,15.3l0,0l1.2,1.2c2.9,2.9,7.5,2.8,10.3,0
						c2.9-2.9,2.8-7.5,0-10.3L115.6,196.6L115.6,196.6z"/>
					<path opacity="0.45" fill="#FBFBFB" enable-background="new    " d="M117.1,202.8c-2.3,2.5-6.1,2.5-8.5,0l-1-1l0,0
						c-2.8-3.2-4.6-6.8-5-9.5c-0.2,0.1-0.4,0.3-0.5,0.5c-2.3,2.4-0.4,8.4,4.1,13.5l0,0l1,1c2.3,2.5,6.1,2.5,8.5,0
						c1.2-1.3,1.8-3.1,1.7-4.8C117.3,202.5,117.2,202.6,117.1,202.8z"/>
					<path opacity="0.45" fill="#FBFBFB" enable-background="new    " d="M312.9,71.2c-3.4,0.3-6.2-2.2-6.3-5.7v-1.4l0,0
						c0.1-4.3,1.1-8.1,2.7-10.4c-0.2,0-0.5-0.1-0.7,0c-3.3,0.3-5.9,5.9-6,12.8l0,0v1.4c0,3.4,2.8,6,6.3,5.7c1.8-0.2,3.4-1.1,4.5-2.4
						C313.2,71.1,313.1,71.2,312.9,71.2z"/>
					<path opacity="0.45" fill="#FBFBFB" enable-background="new    " d="M124.2,305.9c-1.9-2.9-0.9-6.6,2.1-8.2l1.2-0.7l0,0
						c3.8-1.9,7.7-2.8,10.5-2.5c-0.1-0.2-0.2-0.4-0.3-0.6c-1.8-2.8-8-2.5-14.1,0.6l0,0l-1.2,0.7c-3,1.6-4,5.3-2.1,8.2
						c1,1.5,2.5,2.5,4.2,2.9C124.4,306.1,124.3,306,124.2,305.9z"/>
					<rect x="119" y="209.7" transform="matrix(0.7064 -0.7078 0.7078 0.7064 -114.4298 147.1605)" width="2.3" height="3.7"/>
				</g>
				<g>
					<path d="M585.1,349c-0.3,1.6-1,2.9-2,3.9l2.8,0.5c0.8,0.1,1.7-0.2,2.1-0.9c0.6-0.8,0.9-1.8,1.1-2.8c0.2-1,0.1-1.9-0.1-2.9
						c-0.2-0.8-0.9-1.5-1.7-1.6l-2.7-0.5C585.1,346.1,585.4,347.5,585.1,349z"/>
					<path fill="#FF0000" d="M577.5,340.3c-7.9-1.1-14.7,1-15.4,4.8c-0.6,3.8,5.1,8,13,9.6l0,0l1.6,0.3c4,0.7,7.8-2,8.4-6
						c0.7-4-2-7.8-6-8.4L577.5,340.3L577.5,340.3z"/>
					<rect x="588.7" y="348" transform="matrix(0.1655 -0.9862 0.9862 0.1655 147.1479 873.6377)" width="2.3" height="3.7"/>
				</g>
				<g>
					<path d="M523.2,493.6c-1,1.2-2.3,2.1-3.7,2.5l2.2,1.7c0.7,0.5,1.6,0.6,2.3,0.2c0.9-0.5,1.7-1.1,2.3-2c0.6-0.8,1-1.7,1.3-2.6
						c0.2-0.8-0.1-1.7-0.8-2.2l-2.2-1.7C524.7,491,524.1,492.4,523.2,493.6z"/>
					<path fill="#FFEA00" d="M520.6,482.3c-6.4-4.8-13.4-6.2-15.8-3.1s0.7,9.5,6.8,14.6l0,0l1.3,1c3.2,2.5,7.8,1.9,10.3-1.3
						c2.5-3.2,1.9-7.8-1.3-10.3L520.6,482.3L520.6,482.3z"/>
					<rect x="525.8" y="494.8" transform="matrix(0.6156 -0.788 0.788 0.6156 -188.8167 606.1584)" width="2.3" height="3.7"/>
				</g>
				<g>
					<path d="M395.3,117.2c1.6,0.3,2.9,1,3.9,2l0.5-2.8c0.1-0.8-0.2-1.7-0.9-2.1c-0.8-0.6-1.8-0.9-2.8-1.1s-1.9-0.1-2.9,0.1
						c-0.8,0.2-1.5,0.9-1.6,1.7l-0.5,2.7C392.3,117.2,393.8,116.9,395.3,117.2z"/>
					<path fill="#FFEA00" d="M386.6,124.8c-1.1,7.9,1,14.7,4.8,15.4s8-5.1,9.6-13l0,0l0.3-1.6c0.7-4-2-7.8-6-8.4c-4-0.7-7.8,2-8.4,6
						L386.6,124.8L386.6,124.8z"/>
					<rect x="394.3" y="111.3" transform="matrix(0.1655 -0.9862 0.9862 0.1655 219.6474 484.5648)" width="3.7" height="2.3"/>
				</g>
				<path opacity="0.45" fill="#FBFBFB" enable-background="new    " d="M487.3,112.4c-3.4-0.7-5.4-3.9-4.4-7.2l0.4-1.4l0,0
					c1.3-4.1,3.3-7.5,5.5-9.2c-0.2-0.1-0.4-0.2-0.7-0.2c-3.3-0.6-7.4,4-9.4,10.6l0,0l-0.4,1.4c-0.9,3.3,1.1,6.5,4.4,7.2
					c1.8,0.3,3.6-0.1,5-1C487.6,112.4,487.5,112.4,487.3,112.4z"/>
				<path opacity="0.45" fill="#FBFBFB" enable-background="new    " d="M621.5,278.1c-0.6-3.4,1.7-6.4,5.1-6.8l1.4-0.1l0,0
					c4.3-0.3,8.2,0.4,10.6,1.8c0-0.2,0-0.5,0-0.7c-0.6-3.3-6.5-5.4-13.3-4.9l0,0l-1.4,0.1c-3.4,0.3-5.7,3.4-5.1,6.8
					c0.3,1.8,1.4,3.3,2.8,4.3C621.5,278.4,621.5,278.2,621.5,278.1z"/>
				<path opacity="0.45" fill="#FBFBFB" enable-background="new    " d="M523.1,487.2c-1.6,3-5.3,4-8.2,2.2l-1.2-0.8l0,0
					c-3.6-2.4-6.2-5.3-7.3-7.9c-0.2,0.2-0.3,0.4-0.4,0.6c-1.5,2.9,1.8,8.2,7.5,12l0,0l1.2,0.8c2.9,1.8,6.6,0.8,8.2-2.2
					c0.8-1.6,0.9-3.4,0.4-5.1C523.2,486.9,523.2,487,523.1,487.2z"/>
				<path opacity="0.45" fill="#FBFBFB" enable-background="new    " d="M611.5,446.2c-0.6-3.4,1.7-6.4,5.1-6.8l1.4-0.1l0,0
					c4.3-0.3,8.2,0.4,10.6,1.8c0-0.2,0-0.5,0-0.7c-0.6-3.3-6.5-5.4-13.3-4.9l0,0l-1.4,0.1c-3.4,0.3-5.7,3.4-5.1,6.8
					c0.3,1.8,1.4,3.3,2.8,4.3C611.6,446.5,611.6,446.4,611.5,446.2z"/>
				<path opacity="0.36" fill="#FBFBFB" enable-background="new    " d="M582.1,343.7c0.1,3.4-2.7,6.1-6.1,5.9l-1.4-0.1l0,0
					c-4.3-0.4-8-1.7-10.2-3.5c-0.1,0.2-0.1,0.5-0.1,0.7c0.1,3.3,5.5,6.3,12.3,6.9l0,0l1.4,0.1c3.4,0.2,6.2-2.4,6.1-5.9
					c0-1.8-0.8-3.5-2.1-4.7C582,343.4,582,343.5,582.1,343.7z"/>
				<path opacity="0.45" fill="#FBFBFB" enable-background="new    " d="M390.9,120.3c3.4,0.5,5.6,3.6,4.8,6.9l-0.3,1.4l0,0
					c-1,4.2-2.9,7.6-5,9.5c0.2,0.1,0.4,0.2,0.7,0.2c3.3,0.5,7.1-4.5,8.8-11.1l0,0l0.3-1.4c0.7-3.4-1.4-6.5-4.8-6.9
					c-1.8-0.2-3.5,0.3-4.9,1.3C390.6,120.3,390.8,120.3,390.9,120.3z"/>
			</g>
		</g>
	</g>
	<defs>
		<filter id="Adobe_OpacityMaskFilter_1_" filterUnits="userSpaceOnUse" x="64.5" y="15" width="615" height="538">
			<feColorMatrix  type="matrix" values="1 0 0 0 0  0 1 0 0 0  0 0 1 0 0  0 0 0 1 0"/>
		</filter>
	</defs>
	<mask maskUnits="userSpaceOnUse" x="64.5" y="15" width="615" height="538" id="SVGID_2_">
		<g filter="url(#Adobe_OpacityMaskFilter_1_)">
			<path fill="#FFFFFF" d="M610.3,310.5c-0.2-1.8-0.5-3.6-0.8-5.3c-0.4-3-0.9-5.9-1.5-8.8c-0.5-2.6-1-5.1-1.5-7.7
				c-1.1-5.1-2.4-10.2-3.8-15.3c-1.9-6.7-4-13.2-6.3-19.7c-0.9-2.4-1.8-4.7-2.7-7.1l-4.1,0.4l-9.4,0.8l-2.6,0.2
				c10.7,24.9,17.4,51.9,19.3,80.1c0,0.4,0.1,0.9,0.1,1.3c0.1,1.9,0.2,3.7,0.3,5.6c0.1,3.2,0.2,6.4,0.2,9.6c0,2.8,0,5.6-0.1,8.4
				c-0.3,8.2-1,16.2-2,24.2c-1,7.3-2.3,14.6-3.9,21.7c-6.4,28.3-17.8,54.8-33,78.4c-0.7,1.1-1.4,2.2-2.2,3.3c-0.2,0.3-0.5,0.7-0.7,1
				c-1,1.5-2.1,3-3.2,4.4c-1.3,1.6-2.6,3.1-4,4.6c-4.9,5.1-10.4,9.4-16.3,12.8c-4.4,2.5-9.1,4.5-14,6.1
				c-20.6,6.4-43.8,3.3-62.2-10.7c-4.2-3.1-6.3-5.4-6.3-5.4c17.4,0.9,24.8-2.8,24.8-2.8c-40.3-15.5-46.5-55.4-46.5-55.4
				c4.1,6.2,17.6,9.1,17.6,9.1c-22.6-39.3,0.5-62.9,0.5-62.9c3.9,15.4,14,22.3,14,22.3c-4.9-32.3,10.4-47.2,11.4-47.8
				c1-0.5,2.8-2,13-13c10.7-11.4,15.3-16.8,15.3-16.8c3.3-3.2,5.4-6.1,4.9-8.6c-4.7-24.9-2.8-23.6-6.9-28.4
				c-3.5-4.1-10.9-7.1-11-7.9c-0.4-3.3-1.7-8-5.8-13.4c0,0-1,5.2-5.7,10.4c-0.5-0.2-1.1-0.3-1.8-0.4c-0.5-3.6-2.3-9.2-8.1-15.3
				c0,0-0.6,7.3-6.8,14.2c-0.1,0-0.1,0-0.2,0c-0.1-3.2-1.3-10.9-10-19.1c0,0-0.2,7.5-6,15.1c-1.6-0.5-2.7-0.9-3.4-1.2
				c-3.4-1.5-11-7.4-10.3-16.1c0.4-5.1,2.6-9.2,4.4-11.7c9.3,0.9,14.9,5.6,14.9,5.6c-0.2-8.6-2.8-14.1-5.1-17.3
				c1.6-1.9,3.1-3.8,4.6-5.6c8.1,1.2,12.8,5.3,12.8,5.3c0-7.7-2.2-12.8-4.2-15.8c1.9-2.3,3.7-4.5,5.3-6.6c6.6,2.2,10,6.2,10,6.2
				c1.1-7.9-0.7-13-2.3-15.9c3.9-5.2,6.6-8.8,7.6-10.4c2.4-3.8,0.8-8.1,0.8-8.1c-5.2-12.6-20.9-28.1-20.9-28.1
				c-5.1-2.8-18.9-7.4-22.6-8.5s-4.9-0.8-5.9-0.8c-1-0.1-5.6,1-5.6,1c-15.1,2.9-38.7,13.8-38.7,13.8l-12.2,5.8c0,0-4.8,2.4-11.2-1.6
				c-6.4-3.9-14-2.7-34.8,0.6c-20.7,3.4-33.2,4.8-33.2,4.8s-8.1,1.5-17.8,10.7c-9.8,9.2-18.3,15.8-28.7,30.2
				c-10.5,14.4-36.6,25.2-55.9,29.6c0,0,11,5.5,22.3,7.4c0,0-28.3,18.7-55.7,24.3c0,0,9.5,10.4,29.5,15.5c0,0-27.1,18.7-61.5,24.3
				c0,0,10.9,13.6,28.1,19.8c0,0-12.3,19.8-30.3,17c-4.8-0.8-8.2-2.2-10.6-4c-3.3-2.6-4.7-5.9-5.3-9.2c-0.1-0.7-0.2-1.4-0.3-2.1
				c0.3-5.2,0.7-10.4,1.3-15.5c0.9-7.2,2-14.2,3.5-21.2c7.7-37.1,23.9-71.2,46.4-100.1c1.2-1.5,2.4-3,3.6-4.5
				c2.1-2.5,4.2-5.1,6.4-7.5c1.8-2,3.7-4.1,5.5-6.1c5.6-5.9,11.4-11.5,17.5-16.8l0,0c3.5-9.5,7.5-19.7,11.8-28.8
				c-27.3,19-50.8,43.2-69,71.1c-1.1,1.7-2.2,3.3-3.2,5c-1.8,2.9-3.5,5.8-5.2,8.7s-3.3,5.9-4.9,8.9c-3,5.7-5.8,11.6-8.3,17.6
				c-4,9.3-7.5,18.9-10.4,28.7c-6.9,23.5-10.7,48.3-10.7,74.1c0,144.2,116.8,261,261,261c96.7,0,181-52.5,226.2-130.6
				c0.7-1.2,1.4-2.4,2-3.6c1.1-2,2.2-4.1,3.3-6.1c0.9-1.8,1.8-3.5,2.7-5.3c3.2-6.5,6.1-13.1,8.8-19.8c2.7-6.9,5.2-14,7.3-21.2
				c7-23.5,10.7-48.5,10.7-74.3C612.5,333.3,611.7,321.8,610.3,310.5z M324.7,174.1c0.7-0.4,1.5-0.7,2.3-0.9
				c5.2-1.8,13.7-0.5,14.5-0.4c0.9,0.1,11.1,2.8,11.1,2.8c-0.1,0-0.3,0.1-0.4,0.1c0.6,0.2,1,0.3,1,0.3c-5.2,1.5-13.9,5.4-17.6,7.1
				c-3.7,1.7-6.3,0.6-7,0.4c-0.6-0.3-6.2-2.8-7.6-4.4C319.5,177.6,323.1,175,324.7,174.1z M234.1,302.8c-0.3,3.9,1.9,6.2,3.5,10.1
				s-1.8,9.6-1.8,10c-0.1,1,0.1-3.8-3-9.1C229.7,308.5,234.2,302.8,234.1,302.8z M253.8,378.1c-6.2,0.1-9-6.5-9-6.5
				c3.2,2.1,6.4,1.3,10.5,1.8c4.2,0.6,7.5,6.3,7.8,6.5C264,380.5,259.9,378.1,253.8,378.1z M410.8,338.1c-4.7-0.1-5.2-1.8-5.2-1.8
				c-2.9-5.3,5.8-11.3,5.8-11.3c-4.6-0.4-14.8,4.1-20.4,7.8s-7.8,3.8-10.3,2.5c-2.5-1.4-4.1-2.8-10.1-2.2
				c-5.6,0.6-10.2-1.9-10.7-2.2c1.1,3,6.3,7.1,6.3,7.1c-30.4-2.2-29.5-28.8-29.5-28.8c-5.8,22.2,2.8,40.1,14.3,44.8
				s15.3,11.9,15.3,11.9c-7.3-3.5-10.3-0.8-20.5-1.8s-9.6-7.1-16.5-9.6s-13.3,3.4-21.7,5.4c-8.4,2-19.2,0-19.2,0
				c3,5,15.1,8.8,15.1,8.8c-3.6-0.1-13.9,5.5-13.9,5.5s-11.1,4.1-18.2-3.6s-16.3-9.4-16.3-9.4c1.4,2.2,1.6,6.4,1.6,6.4
				s-1.5-3.7-12.9-7.3c-11.4-3.6-12-15.1-12-15.1c8.3,7.1,18,9,18,9c-1.9-4.3-5.3-8.4-5.3-8.4c-6-7.2-1.8-18-1.8-18
				c1.7,10,6.9,10.8,6.9,10.8c2.6-16.4-3-27.8-3-27.8c-12.9-24,6.1-45.9,6.1-45.9c-2.3,13,2.1,18.3,2.1,18.3
				c2.6-17.7,12.1-17.6,13.4-27.9c1-8.1,2.5-15.1,8.6-18.9c6.1-3.8,12.5-10.4,12.5-10.4c-4.7,0.9-11.8-1.2-11-1.2s13.2-4.5,25-16.6
				c11.7-12.1,30.2-10.1,30.2-10.1s-5.3,1.5-9.6,6c-4.2,4.5-10.5,5.6-10.5,5.6s9.3,3.7,16.1,0.1c6.8-3.6,12-10.3,15.8-9.7
				c0,0-1.6,6-4.4,8.4c0,0,8.9-1.4,13.6-7.1c4.7-5.7,9.4-6,9.4-6s6.5-1.9,9.2-6.4c2.8-4.5,4.9-5.9,10.5-7.1
				c5.6-1.2,9.1-5.3,10.1-6.9c1-1.7,5-6.6,9.9-6.6c5,0,12.2-8.4,12.2-8.6c0-0.3,3.4-4.2,10.8-3.8c7.5,0.4,16,0.3,24.6,3.3
				c0,0,4.9,0.9,11.4,7.7s10.4,13.7,10.9,15c0.5,1.4,1.5,1.7-0.3,4.6c-1.9,2.9-5,7.8-5,7.8s0.6-6,0.6-7.3s0.1-2.7-2.9-6.2
				c0,0-1.2,2.8-3,3.3c0,0,0.9-9.6-7.3-12.1c0,0-0.6,5.2-2.8,7.3c0,0-3.9-9.5-10.6-7.6l-3.1,1.2c0,0,2.9,12-4.5,21.4
				c0,0-3.2-6.8-6.1-8.9s-1.1-5.1-1.1-5.1s0.9-2.8,3.7-4.8c-0.5,0.2-8.7,3.2-15.6,7.2c0,0,4.4,14.5-3.8,25.4c0,0-4.6-7.6-7.4-10.1
				s-3.2-3.9-1.9-6.5c1.2-2.7,3.3-4.8,3.3-4.8l-15.7,9c0,0,5,12.6-0.2,25.6c0,0-7.3-8.1-11.2-9.9c-3.9-1.9-2.4-5.8-2.4-5.8
				s0.6-2.8,2.4-5.1c0,0-8.1,4.1-12.9,11c-4.8,6.8-10.7,24.5-5.8,36.4c-0.3-0.2-5.1-3.1-7.9-7.7c0,0,1.2,42.6,50.1,48.3
				c0,0-7.7-2.3-5.1-8.6c2.7-6.2,3.2-11.5,3.2-11.8c0.5,0,11.2,7.6,13.6,21.2c0,0,8.5,0.9,14.6,0.2c0,0-8.4-1.4-6.4-7.8
				s0.7-13.3,0.7-13.3s12.7,4.7,17,18.3c0,0,11.5-2.9,13.7-3.8c0,0-6.5,0-5.8-4c0.8-4-0.2-7.2-0.2-7.2s8.2,4,11.4,10
				c0,0,2.4-0.7,2.9-0.8c0.6-0.1,5.5-0.5,9.7-0.2c0,0,4.4-1.2,12.4,2.8s11.2,8.1,11.2,8.1s1.9,2.4,3,8.5c1.2,6,3.1,17.3,3.1,18.6
				c-0.1,1.2-3.8,5.4-3.8,5.4c0.8-4.1-0.3-10.1-2.8-13.9s-7.8-2.5-9.2-2.2c-1.4,0.4-5.4,2.4-7.7,1.7c-2.3-0.7-6.6-1.6-9.4,1.9
				c-2.7,3.5-5,3.9-8.3,4.3c-4.1,0.5-8.1,3.7-9.5,5.8c-1.5,2-5.2,6.1-11.7,6.1c-6.4,0-10,2.1-14.7,6.4
				C419.4,338.6,415.9,338.2,410.8,338.1z M384.6,269.2c0,0-12.6-5.4-13.5-15.8c-0.9-10.4,11.5-9.7,12.8-9.3c3,0.7,3.6,1.1,13.5,7.8
				c0,0,4.1,2.8,9.4,0.4c0,0-5.7,0.4-9.5-5.2c-3.8-5.6,0.6-4.7,2.1-2.8c1.4,1.8,1.7,5.1,5.4,5.5c3.7,0.3,6.8,0.9,8.5-3.5
				c1.8-4.4,0.8-3.9,2-4.7s1.6,3.9,0.7,5.5c0,0-4.8,17.5-20.4,13.2c-2.5-0.6-8.3-5.4-11.1-0.8C382.7,262.6,383.3,265.8,384.6,269.2z
				 M263.4,99.3c12.2-4.4,24.7-7.9,37.6-10.4c5.1-1,10.2-1.9,15.4-2.5c5.2-0.7,10.5-1.2,15.8-1.6c2.8-0.2,5.6-0.4,8.5-0.5
				c3.6-0.2,7.2-0.2,10.9-0.2c48.1,0,93.1,13,131.8,35.7c7,4.1,13.8,8.5,20.3,13.2c5.3,3.8,10.4,7.7,15.3,11.9
				c2,1.7,4.1,3.5,6.1,5.2c2.3,2.1,4.6,4.2,6.9,6.4c0.4,0.4,0.8,0.7,1.1,1.1c-1.3,1.3-2.6,2.8-4,4.2c-2.2,2.3-4.5,4.6-6.8,6.9
				c-19.8-19.2-42.9-35.1-68.3-46.8c-9.4-4.3-19-8.1-29-11.2c-10.4-3.3-21.2-5.9-32.1-7.8c-2.8-0.5-5.7-0.9-8.5-1.3
				c-3.5-0.5-7.1-0.9-10.7-1.2l0,0c-2.1-0.2-4.3-0.4-6.5-0.5h-0.1c-18.2-1.1-36.1-0.2-53.4,2.5c-3.8-1.9-7.6-2.9-11.5-2.9
				C291.2,99.3,277.1,99,263.4,99.3z"/>
		</g>
	</mask>
	<g mask="url(#SVGID_2_)">
		<g>
			<g enable-background="new    ">

					<image overflow="visible" width="615" height="538" xlink:href="2C559ED55638C299.png"  transform="matrix(1 0 0 1 64.5012 15)">
				</image>
			</g>
		</g>
	</g>
</g>
</svg>
